<svg xmlns="http://www.w3.org/2000/svg" viewBox="0 0 24 24" role="img" aria-label="OpenAI">
  <path fill="#174f73" d="M22.282 9.821a5.985 5.985 0 0 0-.516-4.911 6.046 6.046 0 0 0-6.51-2.9A6.065 6.065 0 0 0 4.981 4.182a5.985 5.985 0 0 0-3.998 2.9 6.046 6.046 0 0 0 .743 7.096 5.98 5.98 0 0 0 .511 4.911 6.051 6.051 0 0 0 6.515 2.9A5.985 5.985 0 0 0 13.26 24a6.056 6.056 0 0 0 5.772-4.206 5.989 5.989 0 0 0 3.997-2.9 6.056 6.056 0 0 0-.747-7.073Zm-9.022 12.608a4.476 4.476 0 0 1-2.876-1.041l.142-.08 4.778-2.758a.795.795 0 0 0 .393-.682v-6.737l2.02 1.169a.071.071 0 0 1 .039.052v5.583a4.504 4.504 0 0 1-4.496 4.494Zm-9.661-4.125a4.471 4.471 0 0 1-.535-3.014l.142.085 4.783 2.758a.771.771 0 0 0 .781 0l5.843-3.368v2.332a.08.08 0 0 1-.033.061L9.74 19.95a4.499 4.499 0 0 1-6.141-1.646ZM2.341 7.895a4.477 4.477 0 0 1 2.342-1.972v5.676a.766.766 0 0 0 .388.676l5.815 3.356-2.02 1.168a.075.075 0 0 1-.071 0l-4.83-2.786a4.504 4.504 0 0 1-1.624-6.118Zm16.596 3.855-5.816-3.364 2.021-1.164a.075.075 0 0 1 .071 0l4.83 2.787a4.494 4.494 0 0 1-.676 8.105v-5.688a.787.787 0 0 0-.43-.676Zm2.01-3.023-.142-.085-4.773-2.781a.776.776 0 0 0-.786 0L9.404 9.229V6.897a.066.066 0 0 1 .028-.061l4.83-2.787a4.5 4.5 0 0 1 6.685 4.678ZM8.307 12.863l-2.025-1.168a.08.08 0 0 1-.038-.061V6.061a4.495 4.495 0 0 1 7.375-3.453l-.142.08-4.778 2.759a.795.795 0 0 0-.393.681v6.735Zm1.097-2.365L12 8.999l2.597 1.499v2.998L12 14.995l-2.596-1.499v-2.998Z"/>
</svg>
